<svg width="840px" height="640px" xmlns="http://www.w3.org/2000/svg" version="1.1">
<line x1="20" y1="490" x2="10" y2="520" stroke="brown" stroke-width="1" />
<line x1="30" y1="310" x2="20" y2="490" stroke="blue" stroke-width="1" />
<line x1="40" y1="170" x2="30" y2="310" stroke="blue" stroke-width="1" />
<line x1="40" y1="170" x2="20" y2="490" stroke="blue" stroke-width="1" />
<line x1="50" y1="250" x2="20" y2="490" stroke="blue" stroke-width="1" />
<line x1="60" y1="540" x2="50" y2="40" stroke="brown" stroke-width="1" />
<line x1="60" y1="540" x2="50" y2="250" stroke="brown" stroke-width="1" />
<line x1="60" y1="540" x2="20" y2="490" stroke="brown" stroke-width="1" />
<line x1="60" y1="230" x2="60" y2="540" stroke="brown" stroke-width="1" />
<line x1="70" y1="510" x2="60" y2="230" stroke="brown" stroke-width="1" />
<line x1="70" y1="130" x2="70" y2="510" stroke="brown" stroke-width="1" />
<line x1="80" y1="520" x2="70" y2="130" stroke="brown" stroke-width="1" />
<line x1="90" y1="300" x2="80" y2="520" stroke="brown" stroke-width="1" />
<line x1="100" y1="600" x2="90" y2="140" stroke="brown" stroke-width="1" />
<line x1="100" y1="600" x2="90" y2="300" stroke="brown" stroke-width="1" />
<line x1="100" y1="430" x2="100" y2="600" stroke="brown" stroke-width="1" />
<line x1="110" y1="540" x2="100" y2="430" stroke="brown" stroke-width="1" />
<line x1="110" y1="460" x2="110" y2="540" stroke="brown" stroke-width="1" />
<line x1="120" y1="420" x2="110" y2="540" stroke="brown" stroke-width="1" />
<line x1="130" y1="630" x2="120" y2="160" stroke="brown" stroke-width="1" />
<line x1="130" y1="630" x2="120" y2="420" stroke="brown" stroke-width="1" />
<line x1="130" y1="270" x2="130" y2="630" stroke="brown" stroke-width="1" />
<line x1="140" y1="310" x2="130" y2="630" stroke="brown" stroke-width="1" />
<line x1="150" y1="530" x2="140" y2="310" stroke="brown" stroke-width="1" />
<line x1="150" y1="220" x2="150" y2="530" stroke="brown" stroke-width="1" />
<line x1="170" y1="90" x2="150" y2="530" stroke="brown" stroke-width="1" />
<line x1="180" y1="150" x2="150" y2="530" stroke="brown" stroke-width="1" />
<line x1="200" y1="570" x2="180" y2="150" stroke="brown" stroke-width="1" />
<line x1="200" y1="90" x2="200" y2="570" stroke="brown" stroke-width="1" />
<line x1="220" y1="560" x2="200" y2="90" stroke="brown" stroke-width="1" />
<line x1="220" y1="150" x2="220" y2="560" stroke="brown" stroke-width="1" />
<line x1="240" y1="490" x2="220" y2="150" stroke="brown" stroke-width="1" />
<line x1="260" y1="460" x2="240" y2="490" stroke="brown" stroke-width="1" />
<line x1="270" y1="410" x2="260" y2="460" stroke="blue" stroke-width="1" />
<line x1="280" y1="590" x2="270" y2="280" stroke="brown" stroke-width="1" />
<line x1="280" y1="590" x2="270" y2="410" stroke="brown" stroke-width="1" />
<line x1="280" y1="590" x2="260" y2="460" stroke="brown" stroke-width="1" />
<line x1="280" y1="170" x2="280" y2="590" stroke="brown" stroke-width="1" />
<line x1="290" y1="560" x2="280" y2="170" stroke="brown" stroke-width="1" />
<line x1="290" y1="70" x2="290" y2="560" stroke="brown" stroke-width="1" />
<line x1="300" y1="100" x2="290" y2="560" stroke="brown" stroke-width="1" />
<line x1="310" y1="600" x2="300" y2="100" stroke="brown" stroke-width="1" />
<line x1="310" y1="330" x2="310" y2="600" stroke="brown" stroke-width="1" />
<line x1="320" y1="630" x2="310" y2="330" stroke="brown" stroke-width="1" />
<line x1="320" y1="550" x2="310" y2="330" stroke="brown" stroke-width="1" />
<line x1="340" y1="80" x2="320" y2="550" stroke="brown" stroke-width="1" />
<line x1="360" y1="370" x2="320" y2="550" stroke="brown" stroke-width="1" />
<line x1="370" y1="420" x2="320" y2="550" stroke="brown" stroke-width="1" />
<line x1="430" y1="530" x2="400" y2="70" stroke="brown" stroke-width="1" />
<line x1="430" y1="530" x2="400" y2="120" stroke="brown" stroke-width="1" />
<line x1="430" y1="530" x2="370" y2="420" stroke="brown" stroke-width="1" />
<line x1="430" y1="500" x2="400" y2="70" stroke="brown" stroke-width="1" />
<line x1="440" y1="280" x2="430" y2="500" stroke="brown" stroke-width="1" />
<line x1="450" y1="440" x2="440" y2="60" stroke="brown" stroke-width="1" />
<line x1="450" y1="440" x2="440" y2="280" stroke="brown" stroke-width="1" />
<line x1="460" y1="400" x2="450" y2="440" stroke="brown" stroke-width="1" />
<line x1="470" y1="620" x2="460" y2="400" stroke="brown" stroke-width="1" />
<line x1="470" y1="470" x2="460" y2="400" stroke="brown" stroke-width="1" />
<line x1="480" y1="270" x2="470" y2="470" stroke="brown" stroke-width="1" />
<line x1="490" y1="620" x2="480" y2="270" stroke="brown" stroke-width="1" />
<line x1="490" y1="140" x2="490" y2="620" stroke="brown" stroke-width="1" />
<line x1="500" y1="210" x2="490" y2="620" stroke="brown" stroke-width="1" />
<line x1="540" y1="340" x2="490" y2="620" stroke="brown" stroke-width="1" />
<line x1="550" y1="610" x2="540" y2="110" stroke="brown" stroke-width="1" />
<line x1="550" y1="610" x2="540" y2="340" stroke="brown" stroke-width="1" />
<line x1="550" y1="470" x2="540" y2="110" stroke="brown" stroke-width="1" />
<line x1="560" y1="380" x2="550" y2="470" stroke="brown" stroke-width="1" />
<line x1="590" y1="200" x2="570" y2="240" stroke="blue" stroke-width="1" />
<line x1="590" y1="200" x2="560" y2="380" stroke="blue" stroke-width="1" />
<line x1="590" y1="200" x2="550" y2="470" stroke="brown" stroke-width="1" />
<line x1="600" y1="440" x2="590" y2="200" stroke="brown" stroke-width="1" />
<line x1="620" y1="590" x2="590" y2="200" stroke="brown" stroke-width="1" />
<line x1="620" y1="380" x2="620" y2="590" stroke="brown" stroke-width="1" />
<line x1="630" y1="180" x2="620" y2="590" stroke="brown" stroke-width="1" />
<line x1="650" y1="350" x2="630" y2="180" stroke="blue" stroke-width="1" />
<line x1="650" y1="350" x2="620" y2="590" stroke="brown" stroke-width="1" />
<line x1="660" y1="450" x2="650" y2="50" stroke="brown" stroke-width="1" />
<line x1="660" y1="450" x2="650" y2="350" stroke="brown" stroke-width="1" />
<line x1="670" y1="610" x2="650" y2="50" stroke="brown" stroke-width="1" />
<line x1="690" y1="510" x2="650" y2="50" stroke="brown" stroke-width="1" />
<line x1="690" y1="190" x2="690" y2="510" stroke="brown" stroke-width="1" />
<line x1="700" y1="580" x2="690" y2="190" stroke="brown" stroke-width="1" />
<line x1="700" y1="340" x2="700" y2="580" stroke="brown" stroke-width="1" />
<line x1="710" y1="50" x2="700" y2="580" stroke="brown" stroke-width="1" />
<line x1="720" y1="480" x2="710" y2="50" stroke="brown" stroke-width="1" />
<line x1="740" y1="450" x2="710" y2="50" stroke="brown" stroke-width="1" />
<line x1="740" y1="180" x2="740" y2="450" stroke="brown" stroke-width="1" />
<line x1="750" y1="500" x2="740" y2="180" stroke="brown" stroke-width="1" />
<line x1="750" y1="110" x2="750" y2="500" stroke="brown" stroke-width="1" />
<line x1="760" y1="250" x2="750" y2="500" stroke="brown" stroke-width="1" />
<line x1="770" y1="330" x2="760" y2="250" stroke="blue" stroke-width="1" />
<line x1="770" y1="330" x2="750" y2="500" stroke="brown" stroke-width="1" />
<line x1="780" y1="430" x2="770" y2="120" stroke="brown" stroke-width="1" />
<line x1="780" y1="430" x2="770" y2="330" stroke="brown" stroke-width="1" />
<line x1="790" y1="480" x2="770" y2="120" stroke="brown" stroke-width="1" />
<line x1="790" y1="300" x2="790" y2="480" stroke="brown" stroke-width="1" />
<line x1="800" y1="350" x2="790" y2="300" stroke="brown" stroke-width="1" />
<polygon points="60,540 70,510 80,520 100,600 110,540 130,630 150,530 200,570 220,560 240,490 280,590 290,560 310,600 320,630 320,550 430,530 430,500 450,440 470,620 470,470 490,620 550,610 550,470 600,440 620,590 660,450 670,610 690,510 700,580 720,480 740,450 750,500 780,430 790,480 800,350 800,260 790,300 770,120 770,330 760,190 760,250 750,110 740,180 710,50 700,340 690,190 650,50 650,350 630,80 630,180 620,380 590,200 570,40 570,240 560,380 540,110 540,340 500,210 490,140 480,270 460,400 440,60 440,280 400,70 400,120 370,420 360,370 340,80 310,330 300,100 290,70 280,170 270,280 270,410 260,260 260,460 220,150 200,90 180,150 170,90 150,220 140,310 130,270 120,160 120,420 110,460 100,430 90,140 90,300 70,130 60,230 50,40 50,250 40,170 30,210 30,310 20,200 20,490 10,130 10,520 " style="fill:none;stroke:black;stroke-width:2" />
<circle cx="60" cy="540" r="3" fill="black" />
<circle cx="70" cy="510" r="3" fill="black" />
<circle cx="80" cy="520" r="3" fill="black" />
<circle cx="100" cy="600" r="3" fill="black" />
<circle cx="110" cy="540" r="3" fill="black" />
<circle cx="130" cy="630" r="3" fill="black" />
<circle cx="150" cy="530" r="3" fill="black" />
<circle cx="200" cy="570" r="3" fill="black" />
<circle cx="220" cy="560" r="3" fill="black" />
<circle cx="240" cy="490" r="3" fill="black" />
<circle cx="280" cy="590" r="3" fill="black" />
<circle cx="290" cy="560" r="3" fill="black" />
<circle cx="310" cy="600" r="3" fill="black" />
<circle cx="320" cy="630" r="3" fill="black" />
<circle cx="320" cy="550" r="3" fill="black" />
<circle cx="430" cy="530" r="3" fill="black" />
<circle cx="430" cy="500" r="3" fill="black" />
<circle cx="450" cy="440" r="3" fill="black" />
<circle cx="470" cy="620" r="3" fill="black" />
<circle cx="470" cy="470" r="3" fill="black" />
<circle cx="490" cy="620" r="3" fill="black" />
<circle cx="550" cy="610" r="3" fill="black" />
<circle cx="550" cy="470" r="3" fill="black" />
<circle cx="600" cy="440" r="3" fill="black" />
<circle cx="620" cy="590" r="3" fill="black" />
<circle cx="660" cy="450" r="3" fill="black" />
<circle cx="670" cy="610" r="3" fill="black" />
<circle cx="690" cy="510" r="3" fill="black" />
<circle cx="700" cy="580" r="3" fill="black" />
<circle cx="720" cy="480" r="3" fill="black" />
<circle cx="740" cy="450" r="3" fill="black" />
<circle cx="750" cy="500" r="3" fill="black" />
<circle cx="780" cy="430" r="3" fill="black" />
<circle cx="790" cy="480" r="3" fill="black" />
<circle cx="800" cy="350" r="3" fill="black" />
<circle cx="800" cy="260" r="3" fill="black" />
<circle cx="790" cy="300" r="3" fill="black" />
<circle cx="770" cy="120" r="3" fill="black" />
<circle cx="770" cy="330" r="3" fill="black" />
<circle cx="760" cy="190" r="3" fill="black" />
<circle cx="760" cy="250" r="3" fill="black" />
<circle cx="750" cy="110" r="3" fill="black" />
<circle cx="740" cy="180" r="3" fill="black" />
<circle cx="710" cy="50" r="3" fill="black" />
<circle cx="700" cy="340" r="3" fill="black" />
<circle cx="690" cy="190" r="3" fill="black" />
<circle cx="650" cy="50" r="3" fill="black" />
<circle cx="650" cy="350" r="3" fill="black" />
<circle cx="630" cy="80" r="3" fill="black" />
<circle cx="630" cy="180" r="3" fill="black" />
<circle cx="620" cy="380" r="3" fill="black" />
<circle cx="590" cy="200" r="3" fill="black" />
<circle cx="570" cy="40" r="3" fill="black" />
<circle cx="570" cy="240" r="3" fill="black" />
<circle cx="560" cy="380" r="3" fill="black" />
<circle cx="540" cy="110" r="3" fill="black" />
<circle cx="540" cy="340" r="3" fill="black" />
<circle cx="500" cy="210" r="3" fill="black" />
<circle cx="490" cy="140" r="3" fill="black" />
<circle cx="480" cy="270" r="3" fill="black" />
<circle cx="460" cy="400" r="3" fill="black" />
<circle cx="440" cy="60" r="3" fill="black" />
<circle cx="440" cy="280" r="3" fill="black" />
<circle cx="400" cy="70" r="3" fill="black" />
<circle cx="400" cy="120" r="3" fill="black" />
<circle cx="370" cy="420" r="3" fill="black" />
<circle cx="360" cy="370" r="3" fill="black" />
<circle cx="340" cy="80" r="3" fill="black" />
<circle cx="310" cy="330" r="3" fill="black" />
<circle cx="300" cy="100" r="3" fill="black" />
<circle cx="290" cy="70" r="3" fill="black" />
<circle cx="280" cy="170" r="3" fill="black" />
<circle cx="270" cy="280" r="3" fill="black" />
<circle cx="270" cy="410" r="3" fill="black" />
<circle cx="260" cy="260" r="3" fill="black" />
<circle cx="260" cy="460" r="3" fill="black" />
<circle cx="220" cy="150" r="3" fill="black" />
<circle cx="200" cy="90" r="3" fill="black" />
<circle cx="180" cy="150" r="3" fill="black" />
<circle cx="170" cy="90" r="3" fill="black" />
<circle cx="150" cy="220" r="3" fill="black" />
<circle cx="140" cy="310" r="3" fill="black" />
<circle cx="130" cy="270" r="3" fill="black" />
<circle cx="120" cy="160" r="3" fill="black" />
<circle cx="120" cy="420" r="3" fill="black" />
<circle cx="110" cy="460" r="3" fill="black" />
<circle cx="100" cy="430" r="3" fill="black" />
<circle cx="90" cy="140" r="3" fill="black" />
<circle cx="90" cy="300" r="3" fill="black" />
<circle cx="70" cy="130" r="3" fill="black" />
<circle cx="60" cy="230" r="3" fill="black" />
<circle cx="50" cy="40" r="3" fill="black" />
<circle cx="50" cy="250" r="3" fill="black" />
<circle cx="40" cy="170" r="3" fill="black" />
<circle cx="30" cy="210" r="3" fill="black" />
<circle cx="30" cy="310" r="3" fill="black" />
<circle cx="20" cy="200" r="3" fill="black" />
<circle cx="20" cy="490" r="3" fill="black" />
<circle cx="10" cy="130" r="3" fill="black" />
<circle cx="10" cy="520" r="3" fill="black" />
</svg>
